{
  "accessors": [
    {
      "bufferView": 0,
      "componentType": 5125,
      "count": 28380,
      "type": "SCALAR"
    },
    {
      "bufferView": 1,
      "componentType": 5126,
      "count": 7884,
      "max": [
        0.03681210842292204,
        0.04738369328458053,
        0.07479999811039306
      ],
      "min": [
        -0.03681210842292204,
        -0.047383693284580586,
        -0.07479999811039306
      ],
      "type": "VEC3"
    },
    {
      "bufferView": 2,
      "componentType": 5126,
      "count": 7884,
      "max": [
        1.0,
        1.0,
        1.0
      ],
      "min": [
        -1.0,
        -1.0,
        -1.0
      ],
      "type": "VEC3"
    },
    {
      "bufferView": 3,
      "componentType": 5126,
      "count": 7884,
      "max": [
        1.0,
        0.9154112872229991
      ],
      "min": [
        0.0,
        0.0
      ],
      "type": "VEC2"
    }
  ],
  "asset": {
    "generator": "Adobe Illustrator",
    "version": "2.0"
  },
  "bufferViews": [
    {
      "buffer": 0,
      "byteLength": 113520,
      "target": 34963
    },
    {
      "buffer": 0,
      "byteLength": 94608,
      "byteOffset": 113520,
      "target": 34962
    },
    {
      "buffer": 0,
      "byteLength": 94608,
      "byteOffset": 208128,
      "target": 34962
    },
    {
      "buffer": 0,
      "byteLength": 63072,
      "byteOffset": 302736,
      "target": 34962
    }
  ],
  "buffers": [
    {
      "byteLength": 365808,
      "uri": "data:application/octet-stream;base64,"
    }
  ],
  "materials": [
    {
      "doubleSided": true,
      "pbrMetallicRoughness": {
        "baseColorFactor": [
          0.875,
          0.42578125,
          0.26953125,
          1.0
        ],
        "metallicFactor": 0.0,
        "roughnessFactor": 0.4000000059604645
      }
    }
  ],
  "meshes": [
    {
      "primitives": [
        {
          "attributes": {
            "NORMAL": 2,
            "POSITION": 1,
            "TEXCOORD_0": 3
          },
          "indices": 0,
          "material": 0,
          "mode": 4
        }
      ]
    }
  ],
  "nodes": [
    {
      "mesh": 0
    }
  ],
  "scenes": [
    {
      "nodes": [
        0
      ]
    }
  ]
}
