<svg width="141" height="36" viewBox="0 0 141 36" fill="none" xmlns="http://www.w3.org/2000/svg">
<path d="M6.40563 35V33.7L10.1056 32.86V6.52H4.60563C3.24563 8.72 2.30563 11.32 1.68563 13.5H0.605625L1.74563 4.54H23.1856L24.3456 13.5H23.2656C22.6256 11.32 21.7656 8.72 20.4056 6.52H14.9256V32.86L18.6056 33.7V35H6.40563ZM26.6413 35.42C24.1613 35.42 22.5813 33.58 22.5813 30.68C22.5813 26.88 25.3213 24.7 31.6813 23.42V20.24C31.6813 16.72 31.2013 15.7 29.5813 15.7C27.9413 15.7 26.9013 16.74 26.9013 18.46C26.9013 19.02 27.0213 19.6 27.0213 20.12C27.0213 21.58 26.1413 22.66 24.9813 22.66C23.8613 22.66 23.0813 21.66 23.0813 20.18C23.0813 18.5 24.1413 16.7 25.8413 15.38C27.3613 14.24 29.2413 13.62 31.2812 13.62C33.4013 13.62 34.7613 14.34 35.4213 15.64C35.8613 16.6 36.0613 17.86 36.0613 20.9V29.32C36.0613 31.74 36.3613 32.66 37.2413 32.66C37.7613 32.66 38.2013 32.34 38.6813 31.66L39.3613 32.74C38.1013 34.58 36.8013 35.42 35.1213 35.42C33.1813 35.42 32.1813 34.34 31.8613 32.14H31.7613C30.3013 34.3 28.5613 35.42 26.6413 35.42ZM29.1213 32.06C30.1413 32.06 31.0613 31.52 31.6813 30.5V25.08C28.2013 25.94 27.1612 26.92 27.1612 29.28C27.1612 31.14 27.8013 32.06 29.1213 32.06ZM40.13 35V33.78L42.51 33.04V17.46L40.17 16.36V15.56L45.73 13.62H46.75V16.44C48.31 14.7 50.49 13.62 52.53 13.62C54.69 13.62 56.09 14.64 56.73 16.8C58.29 14.82 60.67 13.62 62.91 13.62C66.05 13.62 67.47 15.8 67.51 20.62V33.06L69.77 33.78V35H60.89V33.78L63.15 33.06V22.02C63.15 18.18 62.39 16.76 60.31 16.76C59.01 16.76 57.95 17.34 57.09 18.5C57.15 19.12 57.19 19.8 57.19 20.56V33.06L59.47 33.78V35H50.55V33.78L52.83 33.06V22.06C52.83 18.26 51.99 16.72 49.89 16.72C48.67 16.72 47.69 17.26 46.87 18.3V33.04L49.15 33.78V35H40.13ZM81.0009 35.42C79.3409 35.42 77.7009 34.74 76.3809 33.58H76.1809L73.8409 35H73.0409V5.94L70.4809 4.88V4.08L76.8009 2.14H77.4009V16.4C78.8009 14.64 80.5409 13.62 82.5409 13.62C86.6809 13.62 89.5209 17.7 89.5209 23.64C89.5209 30.32 85.8209 35.42 81.0009 35.42ZM80.5609 33.5C83.0809 33.5 84.7409 29.98 84.7409 24.76C84.7409 19.58 83.2209 16.44 80.6009 16.44C79.2809 16.44 78.1809 17.28 77.4009 18.68V28.5C77.4009 31.52 78.6609 33.5 80.5609 33.5ZM99.6925 10.02L98.8325 9.58L100.253 3.4C100.593 1.84 101.293 0.979998 102.433 0.979998C103.233 0.979998 103.813 1.72 103.813 2.76C103.813 3.52 103.493 4.44 102.773 5.48L99.6925 10.02ZM100.433 35.42C95.3925 35.42 92.0525 31.14 92.0525 24.84C92.0525 18.18 95.7925 13.62 101.233 13.62C105.873 13.62 108.353 16.88 108.473 23.08L108.233 23.32H96.7325V23.44C96.7325 28.94 98.4125 31.66 101.813 31.66C104.073 31.66 105.953 30.6 107.213 28.66L107.993 29.44C106.873 33.22 104.073 35.42 100.433 35.42ZM100.873 15.42C98.5325 15.42 97.1125 17.66 96.7925 21.66L103.753 21.34C103.833 21.06 103.873 20.48 103.873 19.82C103.873 16.92 102.833 15.42 100.873 15.42ZM110.403 35V33.78L112.783 33.04V17.46L110.443 16.36V15.56L116.003 13.62H117.023V16.44C118.583 14.7 120.763 13.62 122.803 13.62C124.963 13.62 126.363 14.64 127.003 16.8C128.563 14.82 130.943 13.62 133.183 13.62C136.323 13.62 137.743 15.8 137.783 20.62V33.06L140.043 33.78V35H131.163V33.78L133.423 33.06V22.02C133.423 18.18 132.663 16.76 130.583 16.76C129.283 16.76 128.223 17.34 127.363 18.5C127.423 19.12 127.463 19.8 127.463 20.56V33.06L129.743 33.78V35H120.823V33.78L123.103 33.06V22.06C123.103 18.26 122.263 16.72 120.163 16.72C118.943 16.72 117.963 17.26 117.143 18.3V33.04L119.423 33.78V35H110.403Z" fill="#242424"/>
</svg>