<svg width="53" height="37" viewBox="0 0 53 37" fill="none" xmlns="http://www.w3.org/2000/svg">
<path d="M18.55 0C13.6302 0 8.91197 1.9491 5.43317 5.41852C1.95437 8.88795 0 13.5935 0 18.5C0 23.4065 1.95437 28.1121 5.43317 31.5815C8.91197 35.0509 13.6302 37 18.55 37C20.6806 37 22.7794 36.6209 24.7732 35.9116C25.8883 35.5149 27.1117 35.5149 28.2268 35.9116C30.2206 36.6209 32.3194 37 34.45 37C39.3698 37 44.088 35.0509 47.5668 31.5815C51.0456 28.1121 53 23.4065 53 18.5C53 13.5935 51.0456 8.88795 47.5668 5.41852C44.088 1.9491 39.3698 0 34.45 0C32.3194 0 30.2206 0.379064 28.2268 1.08835C27.1117 1.48505 25.8883 1.48505 24.7732 1.08835C22.7794 0.379064 20.6806 0 18.55 0ZM18.55 5.28571C19.7057 5.28571 20.1581 6.65029 19.4756 7.58301C17.1685 10.7361 15.9 14.5565 15.9 18.5C15.9 22.4394 17.1659 26.2561 19.4685 29.3931C20.1515 30.3235 19.7042 31.7143 18.55 31.7143C15.0359 31.7143 11.6657 30.3221 9.18084 27.8439C6.69598 25.3658 5.3 22.0046 5.3 18.5C5.3 14.9954 6.69598 11.6342 9.18084 9.15609C11.6657 6.67793 15.0359 5.28571 18.55 5.28571ZM34.45 5.28571C37.9641 5.28571 41.3343 6.67793 43.8192 9.15609C46.304 11.6342 47.7 14.9954 47.7 18.5C47.7 22.0046 46.304 25.3658 43.8192 27.8439C41.3343 30.3221 37.9641 31.7143 34.45 31.7143C33.2943 31.7143 32.8419 30.3497 33.5244 29.417C35.8315 26.2639 37.1 22.4435 37.1 18.5C37.1 14.5606 35.8341 10.7439 33.5315 7.60694C32.8485 6.6765 33.2958 5.28571 34.45 5.28571Z" fill="#242424"/>
</svg>