<svg width="97" height="34" viewBox="0 0 97 34" fill="none" xmlns="http://www.w3.org/2000/svg">
<path d="M8.61656 33.36C6.85656 33.36 5.27656 32.74 3.43656 31.38L2.17656 33H1.51656L0.936563 22.86L1.79656 22.64C3.07656 28.92 5.03656 31.58 8.49656 31.58C11.3966 31.58 13.1966 29.72 13.1966 26.72C13.1966 24.38 12.1166 22.66 9.47656 20.78L7.01656 19.16C3.01656 16.48 1.43656 14.04 1.43656 10.48C1.43656 5.68 4.53656 2.12 8.65656 2.12C10.5766 2.12 12.1166 2.9 13.5366 4.58L14.5166 2.5H15.1966L15.4966 11.24H14.5766C13.5766 6.26 11.7166 3.92 8.79656 3.92C6.43656 3.92 4.95656 5.6 4.95656 8.34C4.95656 10.82 6.13656 12.6 9.25656 14.66L11.6566 16.26C14.9166 18.42 16.2966 21 16.2966 24.4C16.2966 29.48 12.9366 33.36 8.61656 33.36ZM24.7972 33.42C22.4172 33.42 21.1572 31.68 21.1572 28.54V13.5H19.0772L18.9772 12.78L23.7772 6.82L24.3972 6.9V12.02H28.9772L28.7172 13.5H24.3972V28.14C24.3972 30.38 25.0172 31.42 26.2972 31.42C27.1372 31.42 28.0372 30.84 28.6372 29.84L29.1972 30.46C28.2372 32.28 26.5572 33.42 24.7972 33.42ZM37.1453 33.42C33.9453 33.42 32.5253 31.52 32.5253 28V13.52L30.1653 12.9V12.02H35.8053V26.4C35.8053 29.9 36.7453 30.98 38.9053 30.98C40.2453 30.98 41.5853 30.2 42.7253 28.46V13.52L40.3653 12.9V12.02H45.9853V29.96L48.1653 30.92V31.46L43.1653 33.42H42.9053V29.76C41.3053 32.14 39.2453 33.42 37.1453 33.42ZM57.2719 33.42C53.4719 33.42 50.6319 28.92 50.6319 22.86C50.6319 16.22 54.0119 11.62 58.9919 11.62C60.0919 11.62 61.3119 11.84 62.4519 12.28V3.78L60.0919 2.64V2.08L65.3119 0.139997H65.6919V29.82L67.8719 30.44V30.92L62.9319 33.42H62.6719V30.12L62.5319 30.06C61.2119 32.28 59.3519 33.42 57.2719 33.42ZM58.6719 30.78C60.2519 30.78 61.6919 29.9 62.4519 28.48V17.36C62.4519 14.5 61.2319 12.94 59.0119 12.94C56.1519 12.94 54.2319 16.62 54.2319 22.22C54.2319 27.5 55.8919 30.78 58.6719 30.78ZM73.6641 7.42C72.3641 7.42 71.5441 6.22 71.5441 4.82C71.5441 3.3 72.3641 2.12 73.6641 2.12C75.0041 2.12 75.8241 3.3 75.8241 4.82C75.8241 6.22 75.0041 7.42 73.6641 7.42ZM69.6241 33V32.12L72.0641 31.5V15.2L69.6641 14.14V13.52L74.9841 11.62H75.3441V31.5L77.7441 32.12V33H69.6241ZM88.1906 33.42C83.2706 33.42 79.7706 28.74 79.7706 22.52C79.7706 16.3 83.2706 11.62 88.1906 11.62C93.1106 11.62 96.6306 16.3 96.6306 22.52C96.6306 28.74 93.1106 33.42 88.1906 33.42ZM88.1706 31.58C91.2706 31.58 92.9906 27.92 92.9906 22.48C92.9906 17.08 91.3106 13.44 88.1906 13.44C85.0906 13.44 83.3906 17.08 83.3906 22.52C83.3906 27.94 85.0906 31.58 88.1706 31.58Z" fill="#242424"/>
</svg>